# xmcd
#
# Track frame offsets:
#	150
#	17399
#	34163
#	53299
#	71312
#	86855
#	102128
#	114519
#	142371
#	154423
#	170156
#	189322
#	210099
#	228607
#	245507
#	259464
#	274837
#	292514
#	308895
#
# Disc length: 4398 seconds
#
# Revision: 1
# Processed by: cddbd v1.5.2PL0 Copyright (c) Steve Scherf et al.
# Submitted via: audiograbber 1.83.01
#
DISCID=08112c13
DTITLE=Mike West - Broken Hearted
DYEAR=2011
DGENRE=Country
TTITLE0=Love Me Till The End
TTITLE1=A Very Long Time
TTITLE2=Broken Hearted
TTITLE3=Longing For You
TTITLE4=Stolen Kiss
TTITLE5=Man For The Second Sight
TTITLE6=To Be Like You
TTITLE7=It Is, You
TTITLE8=Hello Beauty
TTITLE9=Missed Chances
TTITLE10=Reflections In The Moonlight
TTITLE11=After Im Gone
TTITLE12=I Believe In Possibilities
TTITLE13=Just Misunderstood
TTITLE14=I Miss To Be Loved
TTITLE15=Ill Be there For You
TTITLE16=Words To You
TTITLE17=Standing At The Wrong Gate
TTITLE18=Love Me Tomorrow
EXTD=
EXTT0=
EXTT1=
EXTT2=
EXTT3=
EXTT4=
EXTT5=
EXTT6=
EXTT7=
EXTT8=
EXTT9=
EXTT10=
EXTT11=
EXTT12=
EXTT13=
EXTT14=
EXTT15=
EXTT16=
EXTT17=
EXTT18=
PLAYORDER=
